<svg width="40" height="40" viewBox="0 0 40 40" fill="none" xmlns="http://www.w3.org/2000/svg">
  <circle cx="20" cy="20" r="20" fill="black"/>
  <circle cx="20" cy="20" r="18" stroke="#C0C0C0" stroke-width="1" fill="none"/>
  <path d="M20 8C14.477 8 10 12.477 10 18C10 23.523 14.477 28 20 28C25.523 28 30 23.523 30 18C30 12.477 25.523 8 20 8ZM20 10C24.418 10 28 13.582 28 18C28 22.418 24.418 26 20 26C15.582 26 12 22.418 12 18C12 13.582 15.582 10 20 10Z" fill="#C0C0C0"/>
  <path d="M20 12C16.686 12 14 14.686 14 18C14 21.314 16.686 24 20 24C23.314 24 26 21.314 26 18C26 14.686 23.314 12 20 12ZM20 14C22.209 14 24 15.791 24 18C24 20.209 22.209 22 20 22C17.791 22 16 20.209 16 18C16 15.791 17.791 14 20 14Z" fill="#C0C0C0"/>
  <path d="M20 16C18.895 16 18 16.895 18 18C18 19.105 18.895 20 20 20C21.105 20 22 19.105 22 18C22 16.895 21.105 16 20 16Z" fill="#C0C0C0"/>
</svg>
