<svg xmlns="http://www.w3.org/2000/svg" viewBox="0 0 512 512">
  <defs>
    <mask id="cut">
      <rect width="512" height="512" fill="#fff"/>
      <circle cx="256" cy="256" r="150" fill="#000"/>
      <rect x="256" y="70" width="190" height="180" fill="#000"/>
      <rect x="70" y="262" width="180" height="180" fill="#000"/>
    </mask>
  </defs>
  <circle cx="256" cy="256" r="220" fill="#000" mask="url(#cut)"/>
  <rect x="256" y="262" width="186" height="100" fill="#000"/>
</svg>
<svg xmlns="http://www.w3.org/2000/svg" viewBox="0 0 512 512">
  <rect width="512" height="512" fill="white" opacity="0"/>
  <path fill="#000000" d="M256 48c-115.9 0-210 94.1-210 210s94.1 210 210 210c71.4 0 135.4-35.8 173.1-90.5V316h-119.9c-35.3 0-64-28.7-64-64s28.7-64 64-64h119.9v-42C391.4 83.8 327.4 48 256 48zm0 48c89.5 0 162 72.5 162 162H309.2c-61 0-110.2 49.2-110.2 110.2 0 21.1 6 40.8 16.4 57.5C156.7 419.4 94 344.2 94 258c0-89.5 72.5-162 162-162z"/>
</svg>

